<?xml version="1.0" encoding="utf-8" standalone="no"?>
<!DOCTYPE svg PUBLIC "-//W3C//DTD SVG 1.1//EN"
  "http://www.w3.org/Graphics/SVG/1.1/DTD/svg11.dtd">
<svg height="504pt" version="1.1" viewBox="0 0 504 504" width="504pt" xmlns="http://www.w3.org/2000/svg" xmlns:xlink="http://www.w3.org/1999/xlink">
 <metadata>
  <rdf:RDF xmlns:cc="http://creativecommons.org/ns#" xmlns:dc="http://purl.org/dc/elements/1.1/" xmlns:rdf="http://www.w3.org/1999/02/22-rdf-syntax-ns#">
   <cc:Work>
    <dc:type rdf:resource="http://purl.org/dc/dcmitype/StillImage"/>
    <dc:date>2022-04-27T18:38:29.445983</dc:date>
    <dc:format>image/svg+xml</dc:format>
    <dc:creator>
     <cc:Agent>
      <dc:title>Matplotlib v3.4.3, https://matplotlib.org/</dc:title>
     </cc:Agent>
    </dc:creator>
   </cc:Work>
  </rdf:RDF>
 </metadata>
 <defs>
  <style type="text/css">*{stroke-linecap:butt;stroke-linejoin:round;}</style>
 </defs>
 <g id="figure_1">
  <g id="patch_1">
   <path d="M 0 504 
L 504 504 
L 504 0 
L 0 0 
z
" style="fill:#ffffff;"/>
  </g>
  <g id="axes_1">
   <g id="patch_2">
    <path d="M 63 441 
L 453.6 441 
L 453.6 60.48 
L 63 60.48 
z
" style="fill:#ffffff;"/>
   </g>
   <g id="PolyCollection_1">
    <path clip-path="url(#pf7e7f5502c)" d="M 63 143.096023 
L 63 184.836881 
L 64.953 195.788644 
L 66.906 195.788644 
L 68.859 195.788644 
L 70.812 215.188499 
L 72.765 216.504542 
L 74.718 216.504542 
L 76.671 216.504542 
L 78.624 216.504542 
L 80.577 216.504542 
L 82.53 216.504542 
L 84.483 216.504542 
L 86.436 218.616568 
L 88.389 218.616568 
L 90.342 218.616568 
L 92.295 224.043898 
L 94.248 224.043898 
L 96.201 224.043898 
L 98.154 224.043898 
L 100.107 224.043898 
L 102.06 224.043898 
L 104.013 224.043898 
L 105.966 224.043898 
L 107.919 224.043898 
L 109.872 224.043898 
L 111.825 224.043898 
L 113.778 224.043898 
L 115.731 224.043898 
L 117.684 224.043898 
L 119.637 224.043898 
L 121.59 224.043898 
L 123.543 224.043898 
L 125.496 224.043898 
L 127.449 224.043898 
L 129.402 224.043898 
L 131.355 224.043898 
L 133.308 224.043898 
L 135.261 224.043898 
L 137.214 224.043898 
L 139.167 224.043898 
L 141.12 224.043898 
L 143.073 224.043898 
L 145.026 224.043898 
L 146.979 224.043898 
L 148.932 224.043898 
L 150.885 224.043898 
L 152.838 224.043898 
L 154.791 224.043898 
L 156.744 224.043898 
L 158.697 224.043898 
L 160.65 224.043898 
L 162.603 224.043898 
L 164.556 224.043898 
L 166.509 233.840327 
L 168.462 233.840327 
L 170.415 233.840327 
L 172.368 233.840327 
L 174.321 233.840327 
L 176.274 233.840327 
L 178.227 233.840327 
L 180.18 233.840327 
L 182.133 233.840327 
L 184.086 233.840327 
L 186.039 233.840327 
L 187.992 233.840327 
L 189.945 233.840327 
L 191.898 233.840327 
L 193.851 233.840327 
L 195.804 233.840327 
L 197.757 233.840327 
L 199.71 233.840327 
L 201.663 233.840327 
L 203.616 233.840327 
L 205.569 233.840327 
L 207.522 233.840327 
L 209.475 233.840327 
L 211.428 233.840327 
L 213.381 233.840327 
L 215.334 233.840327 
L 217.287 233.840327 
L 219.24 233.840327 
L 221.193 233.840327 
L 223.146 233.840327 
L 225.099 233.840327 
L 227.052 233.840327 
L 229.005 233.840327 
L 230.958 233.840327 
L 232.911 233.840327 
L 234.864 233.840327 
L 236.817 233.840327 
L 238.77 233.840327 
L 240.723 233.840327 
L 242.676 233.840327 
L 244.629 233.840327 
L 246.582 233.840327 
L 248.535 233.840327 
L 250.488 233.840327 
L 252.441 233.840327 
L 254.394 233.840327 
L 256.347 233.840327 
L 258.3 233.840327 
L 260.253 233.840327 
L 262.206 233.840327 
L 264.159 233.840327 
L 266.112 233.840327 
L 268.065 233.840327 
L 270.018 233.840327 
L 271.971 233.840327 
L 273.924 233.840327 
L 275.877 233.840327 
L 277.83 233.840327 
L 279.783 233.840327 
L 281.736 233.840327 
L 283.689 233.840327 
L 285.642 233.840327 
L 287.595 233.840327 
L 289.548 233.840327 
L 291.501 233.840327 
L 293.454 233.840327 
L 295.407 233.840327 
L 297.36 233.840327 
L 299.313 233.840327 
L 301.266 233.840327 
L 303.219 233.840327 
L 305.172 233.840327 
L 307.125 233.840327 
L 309.078 233.840327 
L 311.031 233.840327 
L 312.984 233.840327 
L 314.937 233.840327 
L 316.89 233.840327 
L 318.843 233.840327 
L 320.796 233.840327 
L 322.749 233.840327 
L 324.702 233.840327 
L 326.655 233.840327 
L 328.608 233.840327 
L 330.561 233.840327 
L 332.514 233.840327 
L 334.467 233.840327 
L 336.42 233.840327 
L 338.373 233.840327 
L 340.326 273.208386 
L 342.279 273.208386 
L 344.232 273.208386 
L 346.185 273.208386 
L 348.138 273.208386 
L 350.091 273.208386 
L 352.044 273.208386 
L 353.997 273.208386 
L 355.95 273.208386 
L 357.903 273.208386 
L 359.856 273.208386 
L 361.809 273.208386 
L 363.762 273.208386 
L 365.715 273.208386 
L 367.668 273.208386 
L 369.621 273.208386 
L 371.574 273.208386 
L 373.527 273.208386 
L 375.48 273.208386 
L 377.433 273.208386 
L 379.386 273.208386 
L 381.339 273.208386 
L 383.292 273.208386 
L 385.245 273.208386 
L 387.198 273.208386 
L 389.151 273.208386 
L 391.104 273.208386 
L 393.057 273.208386 
L 395.01 273.208386 
L 396.963 273.208386 
L 398.916 273.208386 
L 400.869 273.208386 
L 402.822 273.208386 
L 404.775 273.208386 
L 406.728 273.208386 
L 408.681 273.208386 
L 410.634 273.208386 
L 412.587 273.208386 
L 414.54 273.208386 
L 416.493 273.208386 
L 418.446 273.208386 
L 420.399 273.208386 
L 422.352 273.208386 
L 424.305 273.208386 
L 426.258 273.208386 
L 428.211 273.208386 
L 430.164 273.208386 
L 432.117 273.208386 
L 434.07 273.208386 
L 436.023 274.997858 
L 437.976 274.997858 
L 439.929 274.997858 
L 441.882 274.997858 
L 443.835 274.997858 
L 445.788 274.997858 
L 447.741 274.997858 
L 449.694 274.997858 
L 451.647 274.997858 
L 451.647 201.563329 
L 451.647 201.563329 
L 449.694 201.563329 
L 447.741 201.563329 
L 445.788 201.563329 
L 443.835 201.563329 
L 441.882 201.563329 
L 439.929 201.563329 
L 437.976 201.563329 
L 436.023 201.563329 
L 434.07 201.563329 
L 432.117 201.563329 
L 430.164 201.563329 
L 428.211 201.563329 
L 426.258 201.563329 
L 424.305 201.563329 
L 422.352 201.563329 
L 420.399 201.563329 
L 418.446 201.563329 
L 416.493 198.690546 
L 414.54 198.690546 
L 412.587 198.690546 
L 410.634 198.690546 
L 408.681 198.690546 
L 406.728 198.690546 
L 404.775 198.690546 
L 402.822 198.690546 
L 400.869 198.690546 
L 398.916 198.690546 
L 396.963 198.690546 
L 395.01 198.690546 
L 393.057 196.751407 
L 391.104 196.751407 
L 389.151 196.751407 
L 387.198 196.751407 
L 385.245 196.751407 
L 383.292 196.751407 
L 381.339 196.751407 
L 379.386 196.751407 
L 377.433 196.751407 
L 375.48 196.751407 
L 373.527 196.751407 
L 371.574 196.751407 
L 369.621 196.751407 
L 367.668 196.751407 
L 365.715 196.751407 
L 363.762 196.751407 
L 361.809 196.751407 
L 359.856 196.751407 
L 357.903 196.751407 
L 355.95 196.751407 
L 353.997 196.751407 
L 352.044 196.751407 
L 350.091 196.751407 
L 348.138 196.751407 
L 346.185 196.751407 
L 344.232 196.751407 
L 342.279 196.751407 
L 340.326 196.751407 
L 338.373 196.751407 
L 336.42 196.751407 
L 334.467 196.751407 
L 332.514 196.751407 
L 330.561 196.751407 
L 328.608 196.751407 
L 326.655 196.751407 
L 324.702 196.751407 
L 322.749 196.751407 
L 320.796 196.751407 
L 318.843 196.751407 
L 316.89 196.751407 
L 314.937 196.751407 
L 312.984 196.751407 
L 311.031 195.184779 
L 309.078 195.184779 
L 307.125 195.184779 
L 305.172 195.184779 
L 303.219 195.184779 
L 301.266 195.184779 
L 299.313 195.184779 
L 297.36 195.184779 
L 295.407 195.184779 
L 293.454 195.184779 
L 291.501 195.184779 
L 289.548 195.184779 
L 287.595 195.184779 
L 285.642 195.184779 
L 283.689 195.184779 
L 281.736 195.184779 
L 279.783 195.184779 
L 277.83 195.184779 
L 275.877 195.184779 
L 273.924 195.184779 
L 271.971 195.184779 
L 270.018 195.184779 
L 268.065 195.184779 
L 266.112 195.184779 
L 264.159 195.184779 
L 262.206 195.184779 
L 260.253 195.184779 
L 258.3 195.184779 
L 256.347 195.184779 
L 254.394 195.184779 
L 252.441 195.184779 
L 250.488 195.184779 
L 248.535 195.184779 
L 246.582 195.184779 
L 244.629 195.184779 
L 242.676 195.184779 
L 240.723 191.531398 
L 238.77 191.531398 
L 236.817 191.531398 
L 234.864 191.531398 
L 232.911 191.531398 
L 230.958 191.531398 
L 229.005 191.531398 
L 227.052 191.531398 
L 225.099 191.531398 
L 223.146 191.531398 
L 221.193 191.531398 
L 219.24 191.531398 
L 217.287 191.531398 
L 215.334 191.531398 
L 213.381 191.531398 
L 211.428 191.531398 
L 209.475 191.531398 
L 207.522 191.531398 
L 205.569 191.531398 
L 203.616 191.531398 
L 201.663 191.531398 
L 199.71 191.531398 
L 197.757 191.531398 
L 195.804 191.531398 
L 193.851 191.531398 
L 191.898 191.531398 
L 189.945 191.531398 
L 187.992 191.531398 
L 186.039 191.531398 
L 184.086 191.531398 
L 182.133 191.531398 
L 180.18 191.531398 
L 178.227 191.531398 
L 176.274 191.531398 
L 174.321 191.531398 
L 172.368 191.531398 
L 170.415 191.531398 
L 168.462 191.531398 
L 166.509 191.531398 
L 164.556 191.531398 
L 162.603 191.531398 
L 160.65 191.531398 
L 158.697 191.531398 
L 156.744 191.531398 
L 154.791 191.531398 
L 152.838 191.459469 
L 150.885 188.720548 
L 148.932 188.720548 
L 146.979 188.720548 
L 145.026 188.720548 
L 143.073 188.720548 
L 141.12 186.94262 
L 139.167 186.94262 
L 137.214 186.94262 
L 135.261 186.94262 
L 133.308 186.94262 
L 131.355 182.550392 
L 129.402 182.550392 
L 127.449 182.550392 
L 125.496 182.550392 
L 123.543 181.529091 
L 121.59 181.529091 
L 119.637 181.529091 
L 117.684 181.529091 
L 115.731 181.529091 
L 113.778 179.077825 
L 111.825 179.077825 
L 109.872 179.077825 
L 107.919 179.077825 
L 105.966 179.077825 
L 104.013 179.077825 
L 102.06 179.077825 
L 100.107 179.077825 
L 98.154 179.077825 
L 96.201 174.624066 
L 94.248 173.405133 
L 92.295 173.405133 
L 90.342 173.405133 
L 88.389 173.405133 
L 86.436 173.405133 
L 84.483 172.463584 
L 82.53 172.463584 
L 80.577 167.066667 
L 78.624 166.985619 
L 76.671 166.985619 
L 74.718 166.455838 
L 72.765 166.455838 
L 70.812 166.002591 
L 68.859 162.915746 
L 66.906 159.964339 
L 64.953 154.680687 
L 63 143.096023 
z
" style="fill:#1f77b4;fill-opacity:0.2;"/>
   </g>
   <g id="PolyCollection_2">
    <path clip-path="url(#pf7e7f5502c)" d="M 63 63.890667 
L 63 110.38208 
L 64.953 113.148764 
L 66.906 122.009483 
L 68.859 129.432938 
L 70.812 138.930324 
L 72.765 151.349069 
L 74.718 175.093156 
L 76.671 175.140156 
L 78.624 190.459752 
L 80.577 197.185418 
L 82.53 200.410972 
L 84.483 219.921174 
L 86.436 240.938632 
L 88.389 269.568428 
L 90.342 269.568428 
L 92.295 274.671588 
L 94.248 298.902776 
L 96.201 298.902776 
L 98.154 303.294356 
L 100.107 303.294356 
L 102.06 332.021849 
L 104.013 344.243068 
L 105.966 345.254059 
L 107.919 345.254059 
L 109.872 351.055989 
L 111.825 354.241283 
L 113.778 354.241283 
L 115.731 354.241283 
L 117.684 355.733128 
L 119.637 355.733128 
L 121.59 355.733128 
L 123.543 376.745205 
L 125.496 376.745205 
L 127.449 376.745205 
L 129.402 376.745205 
L 131.355 376.745205 
L 133.308 380.153482 
L 135.261 380.153482 
L 137.214 380.153482 
L 139.167 380.153482 
L 141.12 380.153482 
L 143.073 380.153482 
L 145.026 380.153482 
L 146.979 380.153482 
L 148.932 395.461516 
L 150.885 395.461516 
L 152.838 395.461516 
L 154.791 395.461516 
L 156.744 395.461516 
L 158.697 397.443548 
L 160.65 397.443548 
L 162.603 397.443548 
L 164.556 397.443548 
L 166.509 397.443548 
L 168.462 397.443548 
L 170.415 430.204271 
L 172.368 430.204271 
L 174.321 430.204271 
L 176.274 430.204271 
L 178.227 430.204271 
L 180.18 430.204271 
L 182.133 430.204271 
L 184.086 430.204271 
L 186.039 430.204271 
L 187.992 430.204271 
L 189.945 430.204271 
L 191.898 430.204271 
L 193.851 430.204271 
L 195.804 430.204271 
L 197.757 430.204271 
L 199.71 430.204271 
L 201.663 430.204271 
L 203.616 430.204271 
L 205.569 430.204271 
L 207.522 430.204271 
L 209.475 430.204271 
L 211.428 430.204271 
L 213.381 430.204271 
L 215.334 430.204271 
L 217.287 430.204271 
L 219.24 430.204271 
L 221.193 430.204271 
L 223.146 430.204271 
L 225.099 430.204271 
L 227.052 430.204271 
L 229.005 430.204271 
L 230.958 430.204271 
L 232.911 430.204271 
L 234.864 430.204271 
L 236.817 430.204271 
L 238.77 430.204271 
L 240.723 430.204271 
L 242.676 430.204271 
L 244.629 430.204271 
L 246.582 430.204271 
L 248.535 430.204271 
L 250.488 430.204271 
L 252.441 430.204271 
L 254.394 430.204271 
L 256.347 430.204271 
L 258.3 430.204271 
L 260.253 430.204271 
L 262.206 430.204271 
L 264.159 430.204271 
L 266.112 430.204271 
L 268.065 430.204271 
L 270.018 430.204271 
L 271.971 430.204271 
L 273.924 430.204271 
L 275.877 430.204271 
L 277.83 430.204271 
L 279.783 430.204271 
L 281.736 430.204271 
L 283.689 430.204271 
L 285.642 430.204271 
L 287.595 430.204271 
L 289.548 430.204271 
L 291.501 430.204271 
L 293.454 430.204271 
L 295.407 430.204271 
L 297.36 430.204271 
L 299.313 430.204271 
L 301.266 430.204271 
L 303.219 430.204271 
L 305.172 430.204271 
L 307.125 430.204271 
L 309.078 430.204271 
L 311.031 430.204271 
L 312.984 430.204271 
L 314.937 430.204271 
L 316.89 430.204271 
L 318.843 430.204271 
L 320.796 430.204271 
L 322.749 430.204271 
L 324.702 430.204271 
L 326.655 430.204271 
L 328.608 430.204271 
L 330.561 430.204271 
L 332.514 430.204271 
L 334.467 430.204271 
L 336.42 430.204271 
L 338.373 430.204271 
L 340.326 430.204271 
L 342.279 430.204271 
L 344.232 430.204271 
L 346.185 430.204271 
L 348.138 430.204271 
L 350.091 430.204271 
L 352.044 430.204271 
L 353.997 430.204271 
L 355.95 430.204271 
L 357.903 430.204271 
L 359.856 430.204271 
L 361.809 430.204271 
L 363.762 430.204271 
L 365.715 430.204271 
L 367.668 430.204271 
L 369.621 430.204271 
L 371.574 430.204271 
L 373.527 430.204271 
L 375.48 430.204271 
L 377.433 430.204271 
L 379.386 430.204271 
L 381.339 430.204271 
L 383.292 430.204271 
L 385.245 430.204271 
L 387.198 430.204271 
L 389.151 430.204271 
L 391.104 430.204271 
L 393.057 430.204271 
L 395.01 430.204271 
L 396.963 430.204271 
L 398.916 430.204271 
L 400.869 430.204271 
L 402.822 430.204271 
L 404.775 430.204271 
L 406.728 430.204271 
L 408.681 430.204271 
L 410.634 430.204271 
L 412.587 430.204271 
L 414.54 430.204271 
L 416.493 430.204271 
L 418.446 430.204271 
L 420.399 430.204271 
L 422.352 430.204271 
L 424.305 430.204271 
L 426.258 430.204271 
L 428.211 430.204271 
L 430.164 430.204271 
L 432.117 430.204271 
L 434.07 430.204271 
L 436.023 430.204271 
L 437.976 430.204271 
L 439.929 430.204271 
L 441.882 430.204271 
L 443.835 430.204271 
L 445.788 430.204271 
L 447.741 430.204271 
L 449.694 430.204271 
L 451.647 430.204271 
L 451.647 313.46414 
L 451.647 313.46414 
L 449.694 313.46414 
L 447.741 313.46414 
L 445.788 313.46414 
L 443.835 313.46414 
L 441.882 313.46414 
L 439.929 313.46414 
L 437.976 313.46414 
L 436.023 313.46414 
L 434.07 313.46414 
L 432.117 313.46414 
L 430.164 313.46414 
L 428.211 313.46414 
L 426.258 313.46414 
L 424.305 313.46414 
L 422.352 313.46414 
L 420.399 313.46414 
L 418.446 313.46414 
L 416.493 313.46414 
L 414.54 313.46414 
L 412.587 313.46414 
L 410.634 313.46414 
L 408.681 313.46414 
L 406.728 313.46414 
L 404.775 313.46414 
L 402.822 313.46414 
L 400.869 313.46414 
L 398.916 313.46414 
L 396.963 313.46414 
L 395.01 313.46414 
L 393.057 313.46414 
L 391.104 313.46414 
L 389.151 313.46414 
L 387.198 313.46414 
L 385.245 313.46414 
L 383.292 313.46414 
L 381.339 313.46414 
L 379.386 313.46414 
L 377.433 313.46414 
L 375.48 313.46414 
L 373.527 313.46414 
L 371.574 313.46414 
L 369.621 313.46414 
L 367.668 313.46414 
L 365.715 313.46414 
L 363.762 313.46414 
L 361.809 313.46414 
L 359.856 313.46414 
L 357.903 313.46414 
L 355.95 313.46414 
L 353.997 313.46414 
L 352.044 313.46414 
L 350.091 313.46414 
L 348.138 313.46414 
L 346.185 313.46414 
L 344.232 313.46414 
L 342.279 313.46414 
L 340.326 313.46414 
L 338.373 313.46414 
L 336.42 313.46414 
L 334.467 313.46414 
L 332.514 313.46414 
L 330.561 313.46414 
L 328.608 313.46414 
L 326.655 313.46414 
L 324.702 313.46414 
L 322.749 313.46414 
L 320.796 313.46414 
L 318.843 313.46414 
L 316.89 313.46414 
L 314.937 313.46414 
L 312.984 313.46414 
L 311.031 313.46414 
L 309.078 313.46414 
L 307.125 284.767268 
L 305.172 284.767268 
L 303.219 284.767268 
L 301.266 268.325981 
L 299.313 268.325981 
L 297.36 204.114855 
L 295.407 204.08765 
L 293.454 200.714277 
L 291.501 200.714277 
L 289.548 200.714277 
L 287.595 200.714277 
L 285.642 200.714277 
L 283.689 200.714277 
L 281.736 194.683546 
L 279.783 194.683546 
L 277.83 194.683546 
L 275.877 194.453659 
L 273.924 194.390492 
L 271.971 194.390492 
L 270.018 194.390492 
L 268.065 194.390492 
L 266.112 194.390492 
L 264.159 194.390492 
L 262.206 194.390492 
L 260.253 194.390492 
L 258.3 194.390492 
L 256.347 194.390492 
L 254.394 194.390492 
L 252.441 194.390492 
L 250.488 194.370371 
L 248.535 194.370371 
L 246.582 194.370371 
L 244.629 194.370371 
L 242.676 194.370371 
L 240.723 194.370371 
L 238.77 194.370371 
L 236.817 194.370371 
L 234.864 194.370371 
L 232.911 194.370371 
L 230.958 194.370371 
L 229.005 194.370371 
L 227.052 194.370371 
L 225.099 194.370371 
L 223.146 194.370371 
L 221.193 194.370371 
L 219.24 194.370371 
L 217.287 194.370371 
L 215.334 194.370371 
L 213.381 194.370371 
L 211.428 194.370371 
L 209.475 194.370371 
L 207.522 194.370371 
L 205.569 194.370371 
L 203.616 194.370371 
L 201.663 194.370371 
L 199.71 194.370371 
L 197.757 194.370371 
L 195.804 194.370371 
L 193.851 194.370371 
L 191.898 194.370371 
L 189.945 187.003736 
L 187.992 187.003736 
L 186.039 186.545428 
L 184.086 186.545428 
L 182.133 186.545428 
L 180.18 186.545428 
L 178.227 186.545428 
L 176.274 186.545428 
L 174.321 186.545428 
L 172.368 186.545428 
L 170.415 186.545428 
L 168.462 186.545428 
L 166.509 186.545428 
L 164.556 186.545428 
L 162.603 186.545428 
L 160.65 186.545428 
L 158.697 186.545428 
L 156.744 186.545428 
L 154.791 186.545428 
L 152.838 186.545428 
L 150.885 186.545428 
L 148.932 186.545428 
L 146.979 186.429117 
L 145.026 186.429117 
L 143.073 186.429117 
L 141.12 186.429117 
L 139.167 186.214939 
L 137.214 186.214939 
L 135.261 182.804599 
L 133.308 179.997164 
L 131.355 179.997164 
L 129.402 179.704524 
L 127.449 168.416601 
L 125.496 168.219525 
L 123.543 162.700355 
L 121.59 159.302371 
L 119.637 159.302371 
L 117.684 158.22307 
L 115.731 158.22307 
L 113.778 157.212734 
L 111.825 155.030682 
L 109.872 153.384868 
L 107.919 150.16125 
L 105.966 150.16125 
L 104.013 149.806888 
L 102.06 149.392782 
L 100.107 137.905246 
L 98.154 137.404849 
L 96.201 137.404849 
L 94.248 136.565403 
L 92.295 134.481306 
L 90.342 121.902371 
L 88.389 121.834612 
L 86.436 104.312149 
L 84.483 87.409479 
L 82.53 79.839979 
L 80.577 79.839979 
L 78.624 77.297191 
L 76.671 76.184511 
L 74.718 75.330889 
L 72.765 73.564899 
L 70.812 71.888766 
L 68.859 71.62914 
L 66.906 68.079082 
L 64.953 68.04615 
L 63 63.890667 
z
" style="fill:#ff7f0e;fill-opacity:0.2;"/>
   </g>
   <g id="matplotlib.axis_1">
    <g id="xtick_1">
     <g id="line2d_1">
      <defs>
       <path d="M 0 0 
L 0 3.5 
" id="mb75771ea0a" style="stroke:#000000;stroke-width:0.8;"/>
      </defs>
      <g>
       <use style="stroke:#000000;stroke-width:0.8;" x="63" xlink:href="#mb75771ea0a" y="441"/>
      </g>
     </g>
     <g id="text_1">
      <!-- 0 -->
      <g transform="translate(59.81875 455.598437)scale(0.1 -0.1)">
       <defs>
        <path d="M 2034 4250 
Q 1547 4250 1301 3770 
Q 1056 3291 1056 2328 
Q 1056 1369 1301 889 
Q 1547 409 2034 409 
Q 2525 409 2770 889 
Q 3016 1369 3016 2328 
Q 3016 3291 2770 3770 
Q 2525 4250 2034 4250 
z
M 2034 4750 
Q 2819 4750 3233 4129 
Q 3647 3509 3647 2328 
Q 3647 1150 3233 529 
Q 2819 -91 2034 -91 
Q 1250 -91 836 529 
Q 422 1150 422 2328 
Q 422 3509 836 4129 
Q 1250 4750 2034 4750 
z
" id="DejaVuSans-30" transform="scale(0.015625)"/>
       </defs>
       <use xlink:href="#DejaVuSans-30"/>
      </g>
     </g>
    </g>
    <g id="xtick_2">
     <g id="line2d_2">
      <g>
       <use style="stroke:#000000;stroke-width:0.8;" x="111.825" xlink:href="#mb75771ea0a" y="441"/>
      </g>
     </g>
     <g id="text_2">
      <!-- 25 -->
      <g transform="translate(105.4625 455.598437)scale(0.1 -0.1)">
       <defs>
        <path d="M 1228 531 
L 3431 531 
L 3431 0 
L 469 0 
L 469 531 
Q 828 903 1448 1529 
Q 2069 2156 2228 2338 
Q 2531 2678 2651 2914 
Q 2772 3150 2772 3378 
Q 2772 3750 2511 3984 
Q 2250 4219 1831 4219 
Q 1534 4219 1204 4116 
Q 875 4013 500 3803 
L 500 4441 
Q 881 4594 1212 4672 
Q 1544 4750 1819 4750 
Q 2544 4750 2975 4387 
Q 3406 4025 3406 3419 
Q 3406 3131 3298 2873 
Q 3191 2616 2906 2266 
Q 2828 2175 2409 1742 
Q 1991 1309 1228 531 
z
" id="DejaVuSans-32" transform="scale(0.015625)"/>
        <path d="M 691 4666 
L 3169 4666 
L 3169 4134 
L 1269 4134 
L 1269 2991 
Q 1406 3038 1543 3061 
Q 1681 3084 1819 3084 
Q 2600 3084 3056 2656 
Q 3513 2228 3513 1497 
Q 3513 744 3044 326 
Q 2575 -91 1722 -91 
Q 1428 -91 1123 -41 
Q 819 9 494 109 
L 494 744 
Q 775 591 1075 516 
Q 1375 441 1709 441 
Q 2250 441 2565 725 
Q 2881 1009 2881 1497 
Q 2881 1984 2565 2268 
Q 2250 2553 1709 2553 
Q 1456 2553 1204 2497 
Q 953 2441 691 2322 
L 691 4666 
z
" id="DejaVuSans-35" transform="scale(0.015625)"/>
       </defs>
       <use xlink:href="#DejaVuSans-32"/>
       <use x="63.623047" xlink:href="#DejaVuSans-35"/>
      </g>
     </g>
    </g>
    <g id="xtick_3">
     <g id="line2d_3">
      <g>
       <use style="stroke:#000000;stroke-width:0.8;" x="160.65" xlink:href="#mb75771ea0a" y="441"/>
      </g>
     </g>
     <g id="text_3">
      <!-- 50 -->
      <g transform="translate(154.2875 455.598437)scale(0.1 -0.1)">
       <use xlink:href="#DejaVuSans-35"/>
       <use x="63.623047" xlink:href="#DejaVuSans-30"/>
      </g>
     </g>
    </g>
    <g id="xtick_4">
     <g id="line2d_4">
      <g>
       <use style="stroke:#000000;stroke-width:0.8;" x="209.475" xlink:href="#mb75771ea0a" y="441"/>
      </g>
     </g>
     <g id="text_4">
      <!-- 75 -->
      <g transform="translate(203.1125 455.598437)scale(0.1 -0.1)">
       <defs>
        <path d="M 525 4666 
L 3525 4666 
L 3525 4397 
L 1831 0 
L 1172 0 
L 2766 4134 
L 525 4134 
L 525 4666 
z
" id="DejaVuSans-37" transform="scale(0.015625)"/>
       </defs>
       <use xlink:href="#DejaVuSans-37"/>
       <use x="63.623047" xlink:href="#DejaVuSans-35"/>
      </g>
     </g>
    </g>
    <g id="xtick_5">
     <g id="line2d_5">
      <g>
       <use style="stroke:#000000;stroke-width:0.8;" x="258.3" xlink:href="#mb75771ea0a" y="441"/>
      </g>
     </g>
     <g id="text_5">
      <!-- 100 -->
      <g transform="translate(248.75625 455.598437)scale(0.1 -0.1)">
       <defs>
        <path d="M 794 531 
L 1825 531 
L 1825 4091 
L 703 3866 
L 703 4441 
L 1819 4666 
L 2450 4666 
L 2450 531 
L 3481 531 
L 3481 0 
L 794 0 
L 794 531 
z
" id="DejaVuSans-31" transform="scale(0.015625)"/>
       </defs>
       <use xlink:href="#DejaVuSans-31"/>
       <use x="63.623047" xlink:href="#DejaVuSans-30"/>
       <use x="127.246094" xlink:href="#DejaVuSans-30"/>
      </g>
     </g>
    </g>
    <g id="xtick_6">
     <g id="line2d_6">
      <g>
       <use style="stroke:#000000;stroke-width:0.8;" x="307.125" xlink:href="#mb75771ea0a" y="441"/>
      </g>
     </g>
     <g id="text_6">
      <!-- 125 -->
      <g transform="translate(297.58125 455.598437)scale(0.1 -0.1)">
       <use xlink:href="#DejaVuSans-31"/>
       <use x="63.623047" xlink:href="#DejaVuSans-32"/>
       <use x="127.246094" xlink:href="#DejaVuSans-35"/>
      </g>
     </g>
    </g>
    <g id="xtick_7">
     <g id="line2d_7">
      <g>
       <use style="stroke:#000000;stroke-width:0.8;" x="355.95" xlink:href="#mb75771ea0a" y="441"/>
      </g>
     </g>
     <g id="text_7">
      <!-- 150 -->
      <g transform="translate(346.40625 455.598437)scale(0.1 -0.1)">
       <use xlink:href="#DejaVuSans-31"/>
       <use x="63.623047" xlink:href="#DejaVuSans-35"/>
       <use x="127.246094" xlink:href="#DejaVuSans-30"/>
      </g>
     </g>
    </g>
    <g id="xtick_8">
     <g id="line2d_8">
      <g>
       <use style="stroke:#000000;stroke-width:0.8;" x="404.775" xlink:href="#mb75771ea0a" y="441"/>
      </g>
     </g>
     <g id="text_8">
      <!-- 175 -->
      <g transform="translate(395.23125 455.598437)scale(0.1 -0.1)">
       <use xlink:href="#DejaVuSans-31"/>
       <use x="63.623047" xlink:href="#DejaVuSans-37"/>
       <use x="127.246094" xlink:href="#DejaVuSans-35"/>
      </g>
     </g>
    </g>
    <g id="xtick_9">
     <g id="line2d_9">
      <g>
       <use style="stroke:#000000;stroke-width:0.8;" x="453.6" xlink:href="#mb75771ea0a" y="441"/>
      </g>
     </g>
     <g id="text_9">
      <!-- 200 -->
      <g transform="translate(444.05625 455.598437)scale(0.1 -0.1)">
       <use xlink:href="#DejaVuSans-32"/>
       <use x="63.623047" xlink:href="#DejaVuSans-30"/>
       <use x="127.246094" xlink:href="#DejaVuSans-30"/>
      </g>
     </g>
    </g>
    <g id="text_10">
     <!-- func. evaluations -->
     <g transform="translate(215.371094 469.276563)scale(0.1 -0.1)">
      <defs>
       <path d="M 2375 4863 
L 2375 4384 
L 1825 4384 
Q 1516 4384 1395 4259 
Q 1275 4134 1275 3809 
L 1275 3500 
L 2222 3500 
L 2222 3053 
L 1275 3053 
L 1275 0 
L 697 0 
L 697 3053 
L 147 3053 
L 147 3500 
L 697 3500 
L 697 3744 
Q 697 4328 969 4595 
Q 1241 4863 1831 4863 
L 2375 4863 
z
" id="DejaVuSans-66" transform="scale(0.015625)"/>
       <path d="M 544 1381 
L 544 3500 
L 1119 3500 
L 1119 1403 
Q 1119 906 1312 657 
Q 1506 409 1894 409 
Q 2359 409 2629 706 
Q 2900 1003 2900 1516 
L 2900 3500 
L 3475 3500 
L 3475 0 
L 2900 0 
L 2900 538 
Q 2691 219 2414 64 
Q 2138 -91 1772 -91 
Q 1169 -91 856 284 
Q 544 659 544 1381 
z
M 1991 3584 
L 1991 3584 
z
" id="DejaVuSans-75" transform="scale(0.015625)"/>
       <path d="M 3513 2113 
L 3513 0 
L 2938 0 
L 2938 2094 
Q 2938 2591 2744 2837 
Q 2550 3084 2163 3084 
Q 1697 3084 1428 2787 
Q 1159 2491 1159 1978 
L 1159 0 
L 581 0 
L 581 3500 
L 1159 3500 
L 1159 2956 
Q 1366 3272 1645 3428 
Q 1925 3584 2291 3584 
Q 2894 3584 3203 3211 
Q 3513 2838 3513 2113 
z
" id="DejaVuSans-6e" transform="scale(0.015625)"/>
       <path d="M 3122 3366 
L 3122 2828 
Q 2878 2963 2633 3030 
Q 2388 3097 2138 3097 
Q 1578 3097 1268 2742 
Q 959 2388 959 1747 
Q 959 1106 1268 751 
Q 1578 397 2138 397 
Q 2388 397 2633 464 
Q 2878 531 3122 666 
L 3122 134 
Q 2881 22 2623 -34 
Q 2366 -91 2075 -91 
Q 1284 -91 818 406 
Q 353 903 353 1747 
Q 353 2603 823 3093 
Q 1294 3584 2113 3584 
Q 2378 3584 2631 3529 
Q 2884 3475 3122 3366 
z
" id="DejaVuSans-63" transform="scale(0.015625)"/>
       <path d="M 684 794 
L 1344 794 
L 1344 0 
L 684 0 
L 684 794 
z
" id="DejaVuSans-2e" transform="scale(0.015625)"/>
       <path id="DejaVuSans-20" transform="scale(0.015625)"/>
       <path d="M 3597 1894 
L 3597 1613 
L 953 1613 
Q 991 1019 1311 708 
Q 1631 397 2203 397 
Q 2534 397 2845 478 
Q 3156 559 3463 722 
L 3463 178 
Q 3153 47 2828 -22 
Q 2503 -91 2169 -91 
Q 1331 -91 842 396 
Q 353 884 353 1716 
Q 353 2575 817 3079 
Q 1281 3584 2069 3584 
Q 2775 3584 3186 3129 
Q 3597 2675 3597 1894 
z
M 3022 2063 
Q 3016 2534 2758 2815 
Q 2500 3097 2075 3097 
Q 1594 3097 1305 2825 
Q 1016 2553 972 2059 
L 3022 2063 
z
" id="DejaVuSans-65" transform="scale(0.015625)"/>
       <path d="M 191 3500 
L 800 3500 
L 1894 563 
L 2988 3500 
L 3597 3500 
L 2284 0 
L 1503 0 
L 191 3500 
z
" id="DejaVuSans-76" transform="scale(0.015625)"/>
       <path d="M 2194 1759 
Q 1497 1759 1228 1600 
Q 959 1441 959 1056 
Q 959 750 1161 570 
Q 1363 391 1709 391 
Q 2188 391 2477 730 
Q 2766 1069 2766 1631 
L 2766 1759 
L 2194 1759 
z
M 3341 1997 
L 3341 0 
L 2766 0 
L 2766 531 
Q 2569 213 2275 61 
Q 1981 -91 1556 -91 
Q 1019 -91 701 211 
Q 384 513 384 1019 
Q 384 1609 779 1909 
Q 1175 2209 1959 2209 
L 2766 2209 
L 2766 2266 
Q 2766 2663 2505 2880 
Q 2244 3097 1772 3097 
Q 1472 3097 1187 3025 
Q 903 2953 641 2809 
L 641 3341 
Q 956 3463 1253 3523 
Q 1550 3584 1831 3584 
Q 2591 3584 2966 3190 
Q 3341 2797 3341 1997 
z
" id="DejaVuSans-61" transform="scale(0.015625)"/>
       <path d="M 603 4863 
L 1178 4863 
L 1178 0 
L 603 0 
L 603 4863 
z
" id="DejaVuSans-6c" transform="scale(0.015625)"/>
       <path d="M 1172 4494 
L 1172 3500 
L 2356 3500 
L 2356 3053 
L 1172 3053 
L 1172 1153 
Q 1172 725 1289 603 
Q 1406 481 1766 481 
L 2356 481 
L 2356 0 
L 1766 0 
Q 1100 0 847 248 
Q 594 497 594 1153 
L 594 3053 
L 172 3053 
L 172 3500 
L 594 3500 
L 594 4494 
L 1172 4494 
z
" id="DejaVuSans-74" transform="scale(0.015625)"/>
       <path d="M 603 3500 
L 1178 3500 
L 1178 0 
L 603 0 
L 603 3500 
z
M 603 4863 
L 1178 4863 
L 1178 4134 
L 603 4134 
L 603 4863 
z
" id="DejaVuSans-69" transform="scale(0.015625)"/>
       <path d="M 1959 3097 
Q 1497 3097 1228 2736 
Q 959 2375 959 1747 
Q 959 1119 1226 758 
Q 1494 397 1959 397 
Q 2419 397 2687 759 
Q 2956 1122 2956 1747 
Q 2956 2369 2687 2733 
Q 2419 3097 1959 3097 
z
M 1959 3584 
Q 2709 3584 3137 3096 
Q 3566 2609 3566 1747 
Q 3566 888 3137 398 
Q 2709 -91 1959 -91 
Q 1206 -91 779 398 
Q 353 888 353 1747 
Q 353 2609 779 3096 
Q 1206 3584 1959 3584 
z
" id="DejaVuSans-6f" transform="scale(0.015625)"/>
       <path d="M 2834 3397 
L 2834 2853 
Q 2591 2978 2328 3040 
Q 2066 3103 1784 3103 
Q 1356 3103 1142 2972 
Q 928 2841 928 2578 
Q 928 2378 1081 2264 
Q 1234 2150 1697 2047 
L 1894 2003 
Q 2506 1872 2764 1633 
Q 3022 1394 3022 966 
Q 3022 478 2636 193 
Q 2250 -91 1575 -91 
Q 1294 -91 989 -36 
Q 684 19 347 128 
L 347 722 
Q 666 556 975 473 
Q 1284 391 1588 391 
Q 1994 391 2212 530 
Q 2431 669 2431 922 
Q 2431 1156 2273 1281 
Q 2116 1406 1581 1522 
L 1381 1569 
Q 847 1681 609 1914 
Q 372 2147 372 2553 
Q 372 3047 722 3315 
Q 1072 3584 1716 3584 
Q 2034 3584 2315 3537 
Q 2597 3491 2834 3397 
z
" id="DejaVuSans-73" transform="scale(0.015625)"/>
      </defs>
      <use xlink:href="#DejaVuSans-66"/>
      <use x="35.205078" xlink:href="#DejaVuSans-75"/>
      <use x="98.583984" xlink:href="#DejaVuSans-6e"/>
      <use x="161.962891" xlink:href="#DejaVuSans-63"/>
      <use x="216.943359" xlink:href="#DejaVuSans-2e"/>
      <use x="248.730469" xlink:href="#DejaVuSans-20"/>
      <use x="280.517578" xlink:href="#DejaVuSans-65"/>
      <use x="342.041016" xlink:href="#DejaVuSans-76"/>
      <use x="401.220703" xlink:href="#DejaVuSans-61"/>
      <use x="462.5" xlink:href="#DejaVuSans-6c"/>
      <use x="490.283203" xlink:href="#DejaVuSans-75"/>
      <use x="553.662109" xlink:href="#DejaVuSans-61"/>
      <use x="614.941406" xlink:href="#DejaVuSans-74"/>
      <use x="654.150391" xlink:href="#DejaVuSans-69"/>
      <use x="681.933594" xlink:href="#DejaVuSans-6f"/>
      <use x="743.115234" xlink:href="#DejaVuSans-6e"/>
      <use x="806.494141" xlink:href="#DejaVuSans-73"/>
     </g>
    </g>
   </g>
   <g id="matplotlib.axis_2">
    <g id="ytick_1">
     <g id="line2d_10">
      <defs>
       <path d="M 0 0 
L -3.5 0 
" id="me11029dca4" style="stroke:#000000;stroke-width:0.8;"/>
      </defs>
      <g>
       <use style="stroke:#000000;stroke-width:0.8;" x="63" xlink:href="#me11029dca4" y="410.681485"/>
      </g>
     </g>
     <g id="text_11">
      <!-- $\mathdefault{10^{-3}}$ -->
      <g transform="translate(32.5 414.480704)scale(0.1 -0.1)">
       <defs>
        <path d="M 678 2272 
L 4684 2272 
L 4684 1741 
L 678 1741 
L 678 2272 
z
" id="DejaVuSans-2212" transform="scale(0.015625)"/>
        <path d="M 2597 2516 
Q 3050 2419 3304 2112 
Q 3559 1806 3559 1356 
Q 3559 666 3084 287 
Q 2609 -91 1734 -91 
Q 1441 -91 1130 -33 
Q 819 25 488 141 
L 488 750 
Q 750 597 1062 519 
Q 1375 441 1716 441 
Q 2309 441 2620 675 
Q 2931 909 2931 1356 
Q 2931 1769 2642 2001 
Q 2353 2234 1838 2234 
L 1294 2234 
L 1294 2753 
L 1863 2753 
Q 2328 2753 2575 2939 
Q 2822 3125 2822 3475 
Q 2822 3834 2567 4026 
Q 2313 4219 1838 4219 
Q 1578 4219 1281 4162 
Q 984 4106 628 3988 
L 628 4550 
Q 988 4650 1302 4700 
Q 1616 4750 1894 4750 
Q 2613 4750 3031 4423 
Q 3450 4097 3450 3541 
Q 3450 3153 3228 2886 
Q 3006 2619 2597 2516 
z
" id="DejaVuSans-33" transform="scale(0.015625)"/>
       </defs>
       <use transform="translate(0 0.765625)" xlink:href="#DejaVuSans-31"/>
       <use transform="translate(63.623047 0.765625)" xlink:href="#DejaVuSans-30"/>
       <use transform="translate(128.203125 39.046875)scale(0.7)" xlink:href="#DejaVuSans-2212"/>
       <use transform="translate(186.855469 39.046875)scale(0.7)" xlink:href="#DejaVuSans-33"/>
      </g>
     </g>
    </g>
    <g id="ytick_2">
     <g id="line2d_11">
      <g>
       <use style="stroke:#000000;stroke-width:0.8;" x="63" xlink:href="#me11029dca4" y="309.96556"/>
      </g>
     </g>
     <g id="text_12">
      <!-- $\mathdefault{10^{-2}}$ -->
      <g transform="translate(32.5 313.764779)scale(0.1 -0.1)">
       <use transform="translate(0 0.765625)" xlink:href="#DejaVuSans-31"/>
       <use transform="translate(63.623047 0.765625)" xlink:href="#DejaVuSans-30"/>
       <use transform="translate(128.203125 39.046875)scale(0.7)" xlink:href="#DejaVuSans-2212"/>
       <use transform="translate(186.855469 39.046875)scale(0.7)" xlink:href="#DejaVuSans-32"/>
      </g>
     </g>
    </g>
    <g id="ytick_3">
     <g id="line2d_12">
      <g>
       <use style="stroke:#000000;stroke-width:0.8;" x="63" xlink:href="#me11029dca4" y="209.249634"/>
      </g>
     </g>
     <g id="text_13">
      <!-- $\mathdefault{10^{-1}}$ -->
      <g transform="translate(32.5 213.048853)scale(0.1 -0.1)">
       <use transform="translate(0 0.684375)" xlink:href="#DejaVuSans-31"/>
       <use transform="translate(63.623047 0.684375)" xlink:href="#DejaVuSans-30"/>
       <use transform="translate(128.203125 38.965625)scale(0.7)" xlink:href="#DejaVuSans-2212"/>
       <use transform="translate(186.855469 38.965625)scale(0.7)" xlink:href="#DejaVuSans-31"/>
      </g>
     </g>
    </g>
    <g id="ytick_4">
     <g id="line2d_13">
      <g>
       <use style="stroke:#000000;stroke-width:0.8;" x="63" xlink:href="#me11029dca4" y="108.533709"/>
      </g>
     </g>
     <g id="text_14">
      <!-- $\mathdefault{10^{0}}$ -->
      <g transform="translate(38.4 112.332928)scale(0.1 -0.1)">
       <use transform="translate(0 0.765625)" xlink:href="#DejaVuSans-31"/>
       <use transform="translate(63.623047 0.765625)" xlink:href="#DejaVuSans-30"/>
       <use transform="translate(128.203125 39.046875)scale(0.7)" xlink:href="#DejaVuSans-30"/>
      </g>
     </g>
    </g>
    <g id="ytick_5">
     <g id="line2d_14">
      <defs>
       <path d="M 0 0 
L -2 0 
" id="m0ee5f10ac5" style="stroke:#000000;stroke-width:0.6;"/>
      </defs>
      <g>
       <use style="stroke:#000000;stroke-width:0.6;" x="63" xlink:href="#m0ee5f10ac5" y="441"/>
      </g>
     </g>
    </g>
    <g id="ytick_6">
     <g id="line2d_15">
      <g>
       <use style="stroke:#000000;stroke-width:0.6;" x="63" xlink:href="#m0ee5f10ac5" y="433.025188"/>
      </g>
     </g>
    </g>
    <g id="ytick_7">
     <g id="line2d_16">
      <g>
       <use style="stroke:#000000;stroke-width:0.6;" x="63" xlink:href="#m0ee5f10ac5" y="426.28258"/>
      </g>
     </g>
    </g>
    <g id="ytick_8">
     <g id="line2d_17">
      <g>
       <use style="stroke:#000000;stroke-width:0.6;" x="63" xlink:href="#m0ee5f10ac5" y="420.441867"/>
      </g>
     </g>
    </g>
    <g id="ytick_9">
     <g id="line2d_18">
      <g>
       <use style="stroke:#000000;stroke-width:0.6;" x="63" xlink:href="#m0ee5f10ac5" y="415.289993"/>
      </g>
     </g>
    </g>
    <g id="ytick_10">
     <g id="line2d_19">
      <g>
       <use style="stroke:#000000;stroke-width:0.6;" x="63" xlink:href="#m0ee5f10ac5" y="380.362971"/>
      </g>
     </g>
    </g>
    <g id="ytick_11">
     <g id="line2d_20">
      <g>
       <use style="stroke:#000000;stroke-width:0.6;" x="63" xlink:href="#m0ee5f10ac5" y="362.627777"/>
      </g>
     </g>
    </g>
    <g id="ytick_12">
     <g id="line2d_21">
      <g>
       <use style="stroke:#000000;stroke-width:0.6;" x="63" xlink:href="#m0ee5f10ac5" y="350.044456"/>
      </g>
     </g>
    </g>
    <g id="ytick_13">
     <g id="line2d_22">
      <g>
       <use style="stroke:#000000;stroke-width:0.6;" x="63" xlink:href="#m0ee5f10ac5" y="340.284074"/>
      </g>
     </g>
    </g>
    <g id="ytick_14">
     <g id="line2d_23">
      <g>
       <use style="stroke:#000000;stroke-width:0.6;" x="63" xlink:href="#m0ee5f10ac5" y="332.309262"/>
      </g>
     </g>
    </g>
    <g id="ytick_15">
     <g id="line2d_24">
      <g>
       <use style="stroke:#000000;stroke-width:0.6;" x="63" xlink:href="#m0ee5f10ac5" y="325.566654"/>
      </g>
     </g>
    </g>
    <g id="ytick_16">
     <g id="line2d_25">
      <g>
       <use style="stroke:#000000;stroke-width:0.6;" x="63" xlink:href="#m0ee5f10ac5" y="319.725941"/>
      </g>
     </g>
    </g>
    <g id="ytick_17">
     <g id="line2d_26">
      <g>
       <use style="stroke:#000000;stroke-width:0.6;" x="63" xlink:href="#m0ee5f10ac5" y="314.574068"/>
      </g>
     </g>
    </g>
    <g id="ytick_18">
     <g id="line2d_27">
      <g>
       <use style="stroke:#000000;stroke-width:0.6;" x="63" xlink:href="#m0ee5f10ac5" y="279.647045"/>
      </g>
     </g>
    </g>
    <g id="ytick_19">
     <g id="line2d_28">
      <g>
       <use style="stroke:#000000;stroke-width:0.6;" x="63" xlink:href="#m0ee5f10ac5" y="261.911851"/>
      </g>
     </g>
    </g>
    <g id="ytick_20">
     <g id="line2d_29">
      <g>
       <use style="stroke:#000000;stroke-width:0.6;" x="63" xlink:href="#m0ee5f10ac5" y="249.328531"/>
      </g>
     </g>
    </g>
    <g id="ytick_21">
     <g id="line2d_30">
      <g>
       <use style="stroke:#000000;stroke-width:0.6;" x="63" xlink:href="#m0ee5f10ac5" y="239.568149"/>
      </g>
     </g>
    </g>
    <g id="ytick_22">
     <g id="line2d_31">
      <g>
       <use style="stroke:#000000;stroke-width:0.6;" x="63" xlink:href="#m0ee5f10ac5" y="231.593336"/>
      </g>
     </g>
    </g>
    <g id="ytick_23">
     <g id="line2d_32">
      <g>
       <use style="stroke:#000000;stroke-width:0.6;" x="63" xlink:href="#m0ee5f10ac5" y="224.850729"/>
      </g>
     </g>
    </g>
    <g id="ytick_24">
     <g id="line2d_33">
      <g>
       <use style="stroke:#000000;stroke-width:0.6;" x="63" xlink:href="#m0ee5f10ac5" y="219.010016"/>
      </g>
     </g>
    </g>
    <g id="ytick_25">
     <g id="line2d_34">
      <g>
       <use style="stroke:#000000;stroke-width:0.6;" x="63" xlink:href="#m0ee5f10ac5" y="213.858142"/>
      </g>
     </g>
    </g>
    <g id="ytick_26">
     <g id="line2d_35">
      <g>
       <use style="stroke:#000000;stroke-width:0.6;" x="63" xlink:href="#m0ee5f10ac5" y="178.93112"/>
      </g>
     </g>
    </g>
    <g id="ytick_27">
     <g id="line2d_36">
      <g>
       <use style="stroke:#000000;stroke-width:0.6;" x="63" xlink:href="#m0ee5f10ac5" y="161.195926"/>
      </g>
     </g>
    </g>
    <g id="ytick_28">
     <g id="line2d_37">
      <g>
       <use style="stroke:#000000;stroke-width:0.6;" x="63" xlink:href="#m0ee5f10ac5" y="148.612605"/>
      </g>
     </g>
    </g>
    <g id="ytick_29">
     <g id="line2d_38">
      <g>
       <use style="stroke:#000000;stroke-width:0.6;" x="63" xlink:href="#m0ee5f10ac5" y="138.852223"/>
      </g>
     </g>
    </g>
    <g id="ytick_30">
     <g id="line2d_39">
      <g>
       <use style="stroke:#000000;stroke-width:0.6;" x="63" xlink:href="#m0ee5f10ac5" y="130.877411"/>
      </g>
     </g>
    </g>
    <g id="ytick_31">
     <g id="line2d_40">
      <g>
       <use style="stroke:#000000;stroke-width:0.6;" x="63" xlink:href="#m0ee5f10ac5" y="124.134803"/>
      </g>
     </g>
    </g>
    <g id="ytick_32">
     <g id="line2d_41">
      <g>
       <use style="stroke:#000000;stroke-width:0.6;" x="63" xlink:href="#m0ee5f10ac5" y="118.29409"/>
      </g>
     </g>
    </g>
    <g id="ytick_33">
     <g id="line2d_42">
      <g>
       <use style="stroke:#000000;stroke-width:0.6;" x="63" xlink:href="#m0ee5f10ac5" y="113.142217"/>
      </g>
     </g>
    </g>
    <g id="ytick_34">
     <g id="line2d_43">
      <g>
       <use style="stroke:#000000;stroke-width:0.6;" x="63" xlink:href="#m0ee5f10ac5" y="78.215194"/>
      </g>
     </g>
    </g>
    <g id="ytick_35">
     <g id="line2d_44">
      <g>
       <use style="stroke:#000000;stroke-width:0.6;" x="63" xlink:href="#m0ee5f10ac5" y="60.48"/>
      </g>
     </g>
    </g>
    <g id="text_15">
     <!-- error gap -->
     <g transform="translate(26.420312 273.843906)rotate(-90)scale(0.1 -0.1)">
      <defs>
       <path d="M 2631 2963 
Q 2534 3019 2420 3045 
Q 2306 3072 2169 3072 
Q 1681 3072 1420 2755 
Q 1159 2438 1159 1844 
L 1159 0 
L 581 0 
L 581 3500 
L 1159 3500 
L 1159 2956 
Q 1341 3275 1631 3429 
Q 1922 3584 2338 3584 
Q 2397 3584 2469 3576 
Q 2541 3569 2628 3553 
L 2631 2963 
z
" id="DejaVuSans-72" transform="scale(0.015625)"/>
       <path d="M 2906 1791 
Q 2906 2416 2648 2759 
Q 2391 3103 1925 3103 
Q 1463 3103 1205 2759 
Q 947 2416 947 1791 
Q 947 1169 1205 825 
Q 1463 481 1925 481 
Q 2391 481 2648 825 
Q 2906 1169 2906 1791 
z
M 3481 434 
Q 3481 -459 3084 -895 
Q 2688 -1331 1869 -1331 
Q 1566 -1331 1297 -1286 
Q 1028 -1241 775 -1147 
L 775 -588 
Q 1028 -725 1275 -790 
Q 1522 -856 1778 -856 
Q 2344 -856 2625 -561 
Q 2906 -266 2906 331 
L 2906 616 
Q 2728 306 2450 153 
Q 2172 0 1784 0 
Q 1141 0 747 490 
Q 353 981 353 1791 
Q 353 2603 747 3093 
Q 1141 3584 1784 3584 
Q 2172 3584 2450 3431 
Q 2728 3278 2906 2969 
L 2906 3500 
L 3481 3500 
L 3481 434 
z
" id="DejaVuSans-67" transform="scale(0.015625)"/>
       <path d="M 1159 525 
L 1159 -1331 
L 581 -1331 
L 581 3500 
L 1159 3500 
L 1159 2969 
Q 1341 3281 1617 3432 
Q 1894 3584 2278 3584 
Q 2916 3584 3314 3078 
Q 3713 2572 3713 1747 
Q 3713 922 3314 415 
Q 2916 -91 2278 -91 
Q 1894 -91 1617 61 
Q 1341 213 1159 525 
z
M 3116 1747 
Q 3116 2381 2855 2742 
Q 2594 3103 2138 3103 
Q 1681 3103 1420 2742 
Q 1159 2381 1159 1747 
Q 1159 1113 1420 752 
Q 1681 391 2138 391 
Q 2594 391 2855 752 
Q 3116 1113 3116 1747 
z
" id="DejaVuSans-70" transform="scale(0.015625)"/>
      </defs>
      <use xlink:href="#DejaVuSans-65"/>
      <use x="61.523438" xlink:href="#DejaVuSans-72"/>
      <use x="100.886719" xlink:href="#DejaVuSans-72"/>
      <use x="139.75" xlink:href="#DejaVuSans-6f"/>
      <use x="200.931641" xlink:href="#DejaVuSans-72"/>
      <use x="242.044922" xlink:href="#DejaVuSans-20"/>
      <use x="273.832031" xlink:href="#DejaVuSans-67"/>
      <use x="337.308594" xlink:href="#DejaVuSans-61"/>
      <use x="398.587891" xlink:href="#DejaVuSans-70"/>
     </g>
    </g>
   </g>
   <g id="line2d_45">
    <path clip-path="url(#pf7e7f5502c)" d="M 63 158.933447 
L 64.953 168.779162 
L 66.906 172.526841 
L 68.859 174.338447 
L 70.812 180.414018 
L 72.765 183.240965 
L 74.718 183.240965 
L 76.671 184.152471 
L 78.624 184.152471 
L 80.577 185.113552 
L 82.53 187.873696 
L 84.483 187.873696 
L 86.436 189.922476 
L 90.342 189.975798 
L 92.295 192.001422 
L 94.248 192.001422 
L 96.201 192.625368 
L 98.154 193.491348 
L 104.013 193.842411 
L 105.966 194.774507 
L 107.919 195.283314 
L 111.825 195.283314 
L 113.778 195.666178 
L 115.731 196.365492 
L 119.637 196.40003 
L 121.59 197.474452 
L 123.543 197.474452 
L 127.449 198.440982 
L 129.402 198.440982 
L 131.355 198.652941 
L 133.308 201.009967 
L 141.12 201.009967 
L 143.073 202.250975 
L 145.026 202.559903 
L 146.979 202.559903 
L 148.932 202.822162 
L 150.885 203.28276 
L 152.838 204.566068 
L 156.744 204.663155 
L 158.697 205.031935 
L 162.603 205.031935 
L 164.556 205.456747 
L 166.509 206.429912 
L 182.133 206.484568 
L 184.086 206.700315 
L 186.039 206.700315 
L 187.992 206.84175 
L 189.945 206.84175 
L 191.898 207.475143 
L 213.381 207.516029 
L 215.334 207.977242 
L 240.723 207.977242 
L 242.676 209.561216 
L 252.441 209.561216 
L 256.347 210.155151 
L 266.112 210.155151 
L 268.065 210.679052 
L 275.877 210.679052 
L 277.83 211.436314 
L 311.031 211.444723 
L 312.984 212.652237 
L 322.749 212.652237 
L 324.702 213.285114 
L 338.373 213.285114 
L 340.326 214.933583 
L 367.668 214.933583 
L 369.621 216.25713 
L 393.057 216.348423 
L 395.01 216.820309 
L 416.493 216.820309 
L 418.446 218.628481 
L 434.07 218.628481 
L 436.023 220.193424 
L 451.647 220.193424 
L 451.647 220.193424 
" style="fill:none;stroke:#1f77b4;stroke-linecap:square;stroke-width:1.5;"/>
   </g>
   <g id="line2d_46">
    <path clip-path="url(#pf7e7f5502c)" d="M 63 82.405344 
L 64.953 84.781456 
L 66.906 87.844987 
L 68.859 91.481616 
L 72.765 103.05002 
L 74.718 110.21998 
L 78.624 126.214843 
L 80.577 131.267065 
L 82.53 134.364297 
L 84.483 140.280516 
L 86.436 150.131491 
L 88.389 156.643006 
L 90.342 162.186132 
L 92.295 166.116598 
L 96.201 175.054662 
L 98.154 176.25699 
L 100.107 179.085324 
L 102.06 185.063706 
L 104.013 186.321431 
L 105.966 189.059985 
L 107.919 190.274807 
L 111.825 199.636825 
L 113.778 206.264122 
L 115.731 209.442231 
L 117.684 210.060047 
L 119.637 213.886584 
L 121.59 214.555438 
L 123.543 221.342202 
L 125.496 222.397775 
L 127.449 224.231882 
L 129.402 228.322686 
L 131.355 230.151835 
L 133.308 233.982515 
L 135.261 234.519471 
L 137.214 236.936211 
L 139.167 237.899047 
L 141.12 243.093279 
L 143.073 243.093279 
L 146.979 243.28237 
L 148.932 245.257908 
L 182.133 245.29863 
L 184.086 246.011234 
L 186.039 246.082803 
L 187.992 247.89835 
L 189.945 247.89835 
L 191.898 253.845527 
L 193.851 253.845527 
L 195.804 256.539582 
L 201.663 256.539582 
L 203.616 259.275981 
L 205.569 259.43466 
L 207.522 259.775565 
L 242.676 259.816419 
L 244.629 265.133748 
L 248.535 265.133748 
L 250.488 268.019692 
L 254.394 268.128168 
L 256.347 269.321834 
L 262.206 269.321834 
L 264.159 269.542077 
L 273.924 269.542077 
L 275.877 269.895349 
L 277.83 271.2012 
L 281.736 271.2012 
L 283.689 283.47847 
L 291.501 283.47847 
L 293.454 285.22186 
L 295.407 289.564026 
L 297.36 289.7564 
L 299.313 305.349635 
L 301.266 305.929123 
L 303.219 333.021286 
L 305.172 333.021286 
L 307.125 338.29894 
L 309.078 344.061922 
L 311.031 344.061922 
L 312.984 344.936839 
L 322.749 344.936839 
L 324.702 346.371834 
L 334.467 346.371834 
L 336.42 346.975511 
L 387.198 346.975511 
L 389.151 348.438173 
L 398.916 348.438173 
L 400.869 349.524402 
L 451.647 349.524402 
L 451.647 349.524402 
" style="fill:none;stroke:#ff7f0e;stroke-linecap:square;stroke-width:1.5;"/>
   </g>
   <g id="patch_3">
    <path d="M 63 441 
L 63 60.48 
" style="fill:none;stroke:#000000;stroke-linecap:square;stroke-linejoin:miter;stroke-width:0.8;"/>
   </g>
   <g id="patch_4">
    <path d="M 453.6 441 
L 453.6 60.48 
" style="fill:none;stroke:#000000;stroke-linecap:square;stroke-linejoin:miter;stroke-width:0.8;"/>
   </g>
   <g id="patch_5">
    <path d="M 63 441 
L 453.6 441 
" style="fill:none;stroke:#000000;stroke-linecap:square;stroke-linejoin:miter;stroke-width:0.8;"/>
   </g>
   <g id="patch_6">
    <path d="M 63 60.48 
L 453.6 60.48 
" style="fill:none;stroke:#000000;stroke-linecap:square;stroke-linejoin:miter;stroke-width:0.8;"/>
   </g>
   <g id="text_16">
    <!-- Hartmann 6D function minimization -->
    <g transform="translate(150.688125 54.48)scale(0.12 -0.12)">
     <defs>
      <path d="M 628 4666 
L 1259 4666 
L 1259 2753 
L 3553 2753 
L 3553 4666 
L 4184 4666 
L 4184 0 
L 3553 0 
L 3553 2222 
L 1259 2222 
L 1259 0 
L 628 0 
L 628 4666 
z
" id="DejaVuSans-48" transform="scale(0.015625)"/>
      <path d="M 3328 2828 
Q 3544 3216 3844 3400 
Q 4144 3584 4550 3584 
Q 5097 3584 5394 3201 
Q 5691 2819 5691 2113 
L 5691 0 
L 5113 0 
L 5113 2094 
Q 5113 2597 4934 2840 
Q 4756 3084 4391 3084 
Q 3944 3084 3684 2787 
Q 3425 2491 3425 1978 
L 3425 0 
L 2847 0 
L 2847 2094 
Q 2847 2600 2669 2842 
Q 2491 3084 2119 3084 
Q 1678 3084 1418 2786 
Q 1159 2488 1159 1978 
L 1159 0 
L 581 0 
L 581 3500 
L 1159 3500 
L 1159 2956 
Q 1356 3278 1631 3431 
Q 1906 3584 2284 3584 
Q 2666 3584 2933 3390 
Q 3200 3197 3328 2828 
z
" id="DejaVuSans-6d" transform="scale(0.015625)"/>
      <path d="M 2113 2584 
Q 1688 2584 1439 2293 
Q 1191 2003 1191 1497 
Q 1191 994 1439 701 
Q 1688 409 2113 409 
Q 2538 409 2786 701 
Q 3034 994 3034 1497 
Q 3034 2003 2786 2293 
Q 2538 2584 2113 2584 
z
M 3366 4563 
L 3366 3988 
Q 3128 4100 2886 4159 
Q 2644 4219 2406 4219 
Q 1781 4219 1451 3797 
Q 1122 3375 1075 2522 
Q 1259 2794 1537 2939 
Q 1816 3084 2150 3084 
Q 2853 3084 3261 2657 
Q 3669 2231 3669 1497 
Q 3669 778 3244 343 
Q 2819 -91 2113 -91 
Q 1303 -91 875 529 
Q 447 1150 447 2328 
Q 447 3434 972 4092 
Q 1497 4750 2381 4750 
Q 2619 4750 2861 4703 
Q 3103 4656 3366 4563 
z
" id="DejaVuSans-36" transform="scale(0.015625)"/>
      <path d="M 1259 4147 
L 1259 519 
L 2022 519 
Q 2988 519 3436 956 
Q 3884 1394 3884 2338 
Q 3884 3275 3436 3711 
Q 2988 4147 2022 4147 
L 1259 4147 
z
M 628 4666 
L 1925 4666 
Q 3281 4666 3915 4102 
Q 4550 3538 4550 2338 
Q 4550 1131 3912 565 
Q 3275 0 1925 0 
L 628 0 
L 628 4666 
z
" id="DejaVuSans-44" transform="scale(0.015625)"/>
      <path d="M 353 3500 
L 3084 3500 
L 3084 2975 
L 922 459 
L 3084 459 
L 3084 0 
L 275 0 
L 275 525 
L 2438 3041 
L 353 3041 
L 353 3500 
z
" id="DejaVuSans-7a" transform="scale(0.015625)"/>
     </defs>
     <use xlink:href="#DejaVuSans-48"/>
     <use x="75.195312" xlink:href="#DejaVuSans-61"/>
     <use x="136.474609" xlink:href="#DejaVuSans-72"/>
     <use x="177.587891" xlink:href="#DejaVuSans-74"/>
     <use x="216.796875" xlink:href="#DejaVuSans-6d"/>
     <use x="314.208984" xlink:href="#DejaVuSans-61"/>
     <use x="375.488281" xlink:href="#DejaVuSans-6e"/>
     <use x="438.867188" xlink:href="#DejaVuSans-6e"/>
     <use x="502.246094" xlink:href="#DejaVuSans-20"/>
     <use x="534.033203" xlink:href="#DejaVuSans-36"/>
     <use x="597.65625" xlink:href="#DejaVuSans-44"/>
     <use x="674.658203" xlink:href="#DejaVuSans-20"/>
     <use x="706.445312" xlink:href="#DejaVuSans-66"/>
     <use x="741.650391" xlink:href="#DejaVuSans-75"/>
     <use x="805.029297" xlink:href="#DejaVuSans-6e"/>
     <use x="868.408203" xlink:href="#DejaVuSans-63"/>
     <use x="923.388672" xlink:href="#DejaVuSans-74"/>
     <use x="962.597656" xlink:href="#DejaVuSans-69"/>
     <use x="990.380859" xlink:href="#DejaVuSans-6f"/>
     <use x="1051.5625" xlink:href="#DejaVuSans-6e"/>
     <use x="1114.941406" xlink:href="#DejaVuSans-20"/>
     <use x="1146.728516" xlink:href="#DejaVuSans-6d"/>
     <use x="1244.140625" xlink:href="#DejaVuSans-69"/>
     <use x="1271.923828" xlink:href="#DejaVuSans-6e"/>
     <use x="1335.302734" xlink:href="#DejaVuSans-69"/>
     <use x="1363.085938" xlink:href="#DejaVuSans-6d"/>
     <use x="1460.498047" xlink:href="#DejaVuSans-69"/>
     <use x="1488.28125" xlink:href="#DejaVuSans-7a"/>
     <use x="1540.771484" xlink:href="#DejaVuSans-61"/>
     <use x="1602.050781" xlink:href="#DejaVuSans-74"/>
     <use x="1641.259766" xlink:href="#DejaVuSans-69"/>
     <use x="1669.042969" xlink:href="#DejaVuSans-6f"/>
     <use x="1730.224609" xlink:href="#DejaVuSans-6e"/>
    </g>
   </g>
   <g id="legend_1">
    <g id="patch_7">
     <path d="M 303.692188 97.83625 
L 446.6 97.83625 
Q 448.6 97.83625 448.6 95.83625 
L 448.6 67.48 
Q 448.6 65.48 446.6 65.48 
L 303.692188 65.48 
Q 301.692188 65.48 301.692188 67.48 
L 301.692188 95.83625 
Q 301.692188 97.83625 303.692188 97.83625 
z
" style="fill:#ffffff;opacity:0.8;stroke:#cccccc;stroke-linejoin:miter;"/>
    </g>
    <g id="line2d_47">
     <path d="M 305.692188 73.578438 
L 325.692188 73.578438 
" style="fill:none;stroke:#1f77b4;stroke-linecap:square;stroke-width:1.5;"/>
    </g>
    <g id="line2d_48"/>
    <g id="text_17">
     <!-- baseline -->
     <g transform="translate(333.692188 77.078438)scale(0.1 -0.1)">
      <defs>
       <path d="M 3116 1747 
Q 3116 2381 2855 2742 
Q 2594 3103 2138 3103 
Q 1681 3103 1420 2742 
Q 1159 2381 1159 1747 
Q 1159 1113 1420 752 
Q 1681 391 2138 391 
Q 2594 391 2855 752 
Q 3116 1113 3116 1747 
z
M 1159 2969 
Q 1341 3281 1617 3432 
Q 1894 3584 2278 3584 
Q 2916 3584 3314 3078 
Q 3713 2572 3713 1747 
Q 3713 922 3314 415 
Q 2916 -91 2278 -91 
Q 1894 -91 1617 61 
Q 1341 213 1159 525 
L 1159 0 
L 581 0 
L 581 4863 
L 1159 4863 
L 1159 2969 
z
" id="DejaVuSans-62" transform="scale(0.015625)"/>
      </defs>
      <use xlink:href="#DejaVuSans-62"/>
      <use x="63.476562" xlink:href="#DejaVuSans-61"/>
      <use x="124.755859" xlink:href="#DejaVuSans-73"/>
      <use x="176.855469" xlink:href="#DejaVuSans-65"/>
      <use x="238.378906" xlink:href="#DejaVuSans-6c"/>
      <use x="266.162109" xlink:href="#DejaVuSans-69"/>
      <use x="293.945312" xlink:href="#DejaVuSans-6e"/>
      <use x="357.324219" xlink:href="#DejaVuSans-65"/>
     </g>
    </g>
    <g id="line2d_49">
     <path d="M 305.692188 88.256563 
L 325.692188 88.256563 
" style="fill:none;stroke:#ff7f0e;stroke-linecap:square;stroke-width:1.5;"/>
    </g>
    <g id="line2d_50"/>
    <g id="text_18">
     <!-- Bayesian optimization -->
     <g transform="translate(333.692188 91.756563)scale(0.1 -0.1)">
      <defs>
       <path d="M 1259 2228 
L 1259 519 
L 2272 519 
Q 2781 519 3026 730 
Q 3272 941 3272 1375 
Q 3272 1813 3026 2020 
Q 2781 2228 2272 2228 
L 1259 2228 
z
M 1259 4147 
L 1259 2741 
L 2194 2741 
Q 2656 2741 2882 2914 
Q 3109 3088 3109 3444 
Q 3109 3797 2882 3972 
Q 2656 4147 2194 4147 
L 1259 4147 
z
M 628 4666 
L 2241 4666 
Q 2963 4666 3353 4366 
Q 3744 4066 3744 3513 
Q 3744 3084 3544 2831 
Q 3344 2578 2956 2516 
Q 3422 2416 3680 2098 
Q 3938 1781 3938 1306 
Q 3938 681 3513 340 
Q 3088 0 2303 0 
L 628 0 
L 628 4666 
z
" id="DejaVuSans-42" transform="scale(0.015625)"/>
       <path d="M 2059 -325 
Q 1816 -950 1584 -1140 
Q 1353 -1331 966 -1331 
L 506 -1331 
L 506 -850 
L 844 -850 
Q 1081 -850 1212 -737 
Q 1344 -625 1503 -206 
L 1606 56 
L 191 3500 
L 800 3500 
L 1894 763 
L 2988 3500 
L 3597 3500 
L 2059 -325 
z
" id="DejaVuSans-79" transform="scale(0.015625)"/>
      </defs>
      <use xlink:href="#DejaVuSans-42"/>
      <use x="68.603516" xlink:href="#DejaVuSans-61"/>
      <use x="129.882812" xlink:href="#DejaVuSans-79"/>
      <use x="189.0625" xlink:href="#DejaVuSans-65"/>
      <use x="250.585938" xlink:href="#DejaVuSans-73"/>
      <use x="302.685547" xlink:href="#DejaVuSans-69"/>
      <use x="330.46875" xlink:href="#DejaVuSans-61"/>
      <use x="391.748047" xlink:href="#DejaVuSans-6e"/>
      <use x="455.126953" xlink:href="#DejaVuSans-20"/>
      <use x="486.914062" xlink:href="#DejaVuSans-6f"/>
      <use x="548.095703" xlink:href="#DejaVuSans-70"/>
      <use x="611.572266" xlink:href="#DejaVuSans-74"/>
      <use x="650.78125" xlink:href="#DejaVuSans-69"/>
      <use x="678.564453" xlink:href="#DejaVuSans-6d"/>
      <use x="775.976562" xlink:href="#DejaVuSans-69"/>
      <use x="803.759766" xlink:href="#DejaVuSans-7a"/>
      <use x="856.25" xlink:href="#DejaVuSans-61"/>
      <use x="917.529297" xlink:href="#DejaVuSans-74"/>
      <use x="956.738281" xlink:href="#DejaVuSans-69"/>
      <use x="984.521484" xlink:href="#DejaVuSans-6f"/>
      <use x="1045.703125" xlink:href="#DejaVuSans-6e"/>
     </g>
    </g>
   </g>
  </g>
 </g>
 <defs>
  <clipPath id="pf7e7f5502c">
   <rect height="380.52" width="390.6" x="63" y="60.48"/>
  </clipPath>
 </defs>
</svg>
